HIERARCHY
ROOT SpineBase
{
  OFFSET 0.000000 0.000000 0.000000
  CHANNELS 6 Xposition Yposition Zposition Zrotation Xrotation Yrotation
  JOINT SpineMid
  {
    OFFSET -0.000000 38.266389 0.000000
    CHANNELS 3 Zrotation Xrotation Yrotation
    JOINT SpineShoulder
    {
      OFFSET 0.194633 28.366965 -0.670347
      CHANNELS 3 Zrotation Xrotation Yrotation
      JOINT Neck
      {
        OFFSET 0.157126 9.342900 -0.528301
        CHANNELS 3 Zrotation Xrotation Yrotation
        JOINT Head
        {
          OFFSET 5.162569 11.916689 2.195475
          CHANNELS 3 Zrotation Xrotation Yrotation
          End Site
          {
            OFFSET 0 0 0
          }
        }
      }
      JOINT ShoulderLeft
      {
        OFFSET -6.596115 -2.257765 -11.356436
        CHANNELS 3 Zrotation Xrotation Yrotation
        JOINT ElbowLeft
        {
          OFFSET -1.355401 -23.492654 -6.436809
          CHANNELS 3 Zrotation Xrotation Yrotation
          JOINT WristLeft
          {
            OFFSET 6.715458 -25.961593 -0.224417
            CHANNELS 3 Zrotation Xrotation Yrotation
            JOINT HandLeft
            {
              OFFSET 2.183574 -8.212938 3.604279
              CHANNELS 3 Zrotation Xrotation Yrotation
              JOINT HandTipLeft
              {
                OFFSET 4.795868 -7.382935 -1.380260
                CHANNELS 3 Zrotation Xrotation Yrotation
                End Site
                {
                  OFFSET 0 0 0
                }
              }
              JOINT ThumbLeft
              {
                OFFSET -4.837933 -2.373264 -0.409245
                CHANNELS 3 Zrotation Xrotation Yrotation
                End Site
                {
                  OFFSET 0 0 0
                }
              }
            }
          }
        }
      }
      JOINT ShoulderRight
      {
        OFFSET 2.738271 -2.503986 14.951192
        CHANNELS 3 Zrotation Xrotation Yrotation
        JOINT ElbowRight
        {
          OFFSET 7.534820 -24.955637 3.821294
          CHANNELS 3 Zrotation Xrotation Yrotation
          JOINT WristRight
          {
            OFFSET 13.125402 -19.014652 12.123894
            CHANNELS 3 Zrotation Xrotation Yrotation
            JOINT HandRight
            {
              OFFSET 4.305648 -4.165850 3.086356
              CHANNELS 3 Zrotation Xrotation Yrotation
              JOINT HandTipRight
              {
                OFFSET 5.766890 -4.223344 -0.741390
                CHANNELS 3 Zrotation Xrotation Yrotation
                End Site
                {
                  OFFSET 0 0 0
                }
              }
              JOINT ThumbRight
              {
                OFFSET 5.076998 5.302478 -0.602131
                CHANNELS 3 Zrotation Xrotation Yrotation
                End Site
                {
                  OFFSET 0 0 0
                }
              }
            }
          }
        }
      }
    }
  }
  JOINT HipLeft
  {
    OFFSET -2.123331 0.917294 -10.382006
    CHANNELS 3 Zrotation Xrotation Yrotation
    JOINT KneeLeft
    {
      OFFSET -2.297247 -32.656183 6.871523
      CHANNELS 3 Zrotation Xrotation Yrotation
      JOINT AnkleLeft
      {
        OFFSET -7.951757 -33.596279 4.047725
        CHANNELS 3 Zrotation Xrotation Yrotation
        JOINT FootLeft
        {
          OFFSET 4.064061 -7.301166 1.865150
          CHANNELS 3 Zrotation Xrotation Yrotation
          End Site
          {
            OFFSET 0 0 0
          }
        }
      }
    }
  }
  JOINT HipRight
  {
    OFFSET 3.792628 0.614328 3.758115
    CHANNELS 3 Zrotation Xrotation Yrotation
    JOINT KneeRight
    {
      OFFSET -1.774144 -38.647104 15.250180
      CHANNELS 3 Zrotation Xrotation Yrotation
      JOINT AnkleRight
      {
        OFFSET -8.086372 -31.470039 0.549788
        CHANNELS 3 Zrotation Xrotation Yrotation
        JOINT FootRight
        {
          OFFSET 6.131410 -6.595660 0.591302
          CHANNELS 3 Zrotation Xrotation Yrotation
          End Site
          {
            OFFSET 0 0 0
          }
        }
      }
    }
  }
}
MOTION
Frames: 10
Frame Time: 0.033333
-81.984012 77.519668 329.681013 0.000000 0.000000 -67.296488 0.000000 -0.000000 67.296488 -0.000000 0.000000 0.000000 -0.000000 0.000000 0.000000 0.000000 0.000000 0.000000 -0.000000 0.000000 0.000000 -0.000000 0.000000 0.000000 -0.000000 0.000000 0.000000 -0.000000 0.000000 0.000000 0.000000 0.000000 0.000000 0.000000 0.000000 0.000000 -0.000000 0.000000 0.000000 -0.000000 0.000000 0.000000 -0.000000 0.000000 0.000000 -0.000000 0.000000 0.000000 0.000000 0.000000 0.000000 0.000000 0.000000 0.000000 0.000000 -0.000000 67.296488 -0.000000 0.000000 0.000000 -0.000000 0.000000 0.000000 0.000000 0.000000 0.000000 0.000000 -0.000000 67.296488 -0.000000 0.000000 0.000000 -0.000000 0.000000 0.000000 0.000000 0.000000 0.000000
-82.124044 77.632476 329.522497 -0.193611 0.210658 -67.650187 0.268456 0.098962 67.650311 -0.000000 0.000000 0.000000 -1.315736 0.338363 0.099167 0.000000 0.000000 0.000000 -0.000000 0.000000 0.000000 -0.000000 0.000000 0.000000 -0.000000 0.000000 0.000000 -0.491340 1.236970 0.901387 0.000000 0.000000 0.000000 0.000000 0.000000 0.000000 -0.000000 0.000000 0.000000 -3.741361 1.947118 -1.012353 -3.088593 -2.031373 -4.554311 8.357042 -1.325809 2.303312 0.000000 0.000000 0.000000 0.000000 0.000000 0.000000 0.268456 0.098962 67.650311 -0.000000 0.000000 0.000000 -0.000000 0.000000 0.000000 0.000000 0.000000 0.000000 0.268456 0.098962 67.650311 -0.553790 1.273269 -0.330360 4.422863 -8.065745 -5.142902 0.000000 0.000000 0.000000
-82.240049 77.739411 329.384927 -0.394390 0.399229 -67.857462 0.518434 0.214831 67.857865 -0.000000 0.000000 0.000000 -2.427126 0.728666 0.145481 0.000000 0.000000 0.000000 -0.000000 0.000000 0.000000 -0.000000 0.000000 0.000000 -0.106300 1.227220 0.282177 -0.936159 0.921464 1.309749 0.000000 0.000000 0.000000 0.000000 0.000000 0.000000 -0.000000 0.000000 0.000000 -7.264214 3.731455 -1.950111 -5.379258 -3.094775 -8.117795 14.761441 -2.235843 4.161743 0.000000 0.000000 0.000000 0.000000 0.000000 0.000000 1.974705 0.469682 68.102026 -0.779594 1.256155 -0.244314 -0.000000 0.000000 0.000000 0.000000 0.000000 0.000000 0.518434 0.214831 67.857865 -1.007522 2.327278 -0.594087 8.152874 -15.867046 -9.619945 0.000000 0.000000 0.000000
-82.332027 77.840473 329.268303 -0.602018 0.565247 -67.926354 0.022066 -0.170683 67.907105 -0.224015 0.148855 -0.044385 -2.355083 0.539986 0.172840 0.000000 0.000000 0.000000 1.848077 -1.207854 -0.120312 -0.872677 0.577428 0.209812 -0.171569 1.815821 0.413275 -1.480033 0.925199 1.673365 0.000000 0.000000 0.000000 0.000000 0.000000 0.000000 0.976606 -0.628455 0.071138 -10.562401 5.336227 -2.839023 -6.744358 -3.533980 -10.508805 18.892197 -3.157555 5.619340 0.000000 0.000000 0.000000 0.000000 0.000000 0.000000 2.756676 0.740198 68.263259 -1.109771 1.717780 -0.338573 -0.721849 0.483950 0.088432 0.000000 0.000000 0.000000 0.750046 0.345480 67.927062 -1.364438 3.160706 -0.796490 11.101097 -22.767996 -13.275703 0.000000 0.000000 0.000000
-82.399979 77.935662 329.172625 -0.816151 0.708325 -67.861662 0.017705 -0.215525 67.836813 -0.255155 0.169817 -0.056079 -2.760899 0.883409 0.115216 0.000000 0.000000 0.000000 2.436710 -1.545895 -0.159792 -2.090759 0.575019 0.255608 0.671673 2.570800 0.576536 -2.069778 0.636270 1.841914 0.000000 0.000000 0.000000 0.000000 0.000000 0.000000 1.265387 -0.778746 0.093233 -13.636923 6.752272 -3.705752 -7.285613 -3.614868 -11.790649 20.558864 -4.338589 6.895941 0.000000 0.000000 0.000000 0.000000 0.000000 0.000000 3.406649 1.024960 68.272286 -1.402082 2.071074 -0.416629 -0.848543 0.574817 0.108032 0.000000 0.000000 0.000000 0.963653 0.489068 67.862594 -1.627203 3.773343 -0.941837 13.294429 -28.356792 -16.089825 0.000000 0.000000 0.000000
-82.443904 78.024977 329.097892 -1.036418 0.828160 -67.665260 0.006457 -0.254442 67.635176 -0.264350 0.176299 -0.066248 -2.975370 1.308257 0.002833 0.000000 0.000000 0.000000 3.010723 -1.851104 -0.200156 -2.784914 0.800708 0.357447 0.979853 3.075552 0.678050 -2.706724 0.060923 1.811866 0.000000 0.000000 0.000000 0.000000 0.000000 0.000000 1.535236 -0.899175 0.113961 -16.494155 7.976200 -4.576638 -7.186784 -3.492979 -12.127540 19.495021 -5.910601 8.258607 0.000000 0.000000 0.000000 0.000000 0.000000 0.000000 3.928450 1.319417 68.132256 -1.657721 2.317844 -0.479931 -0.918280 0.630590 0.122192 0.000000 0.000000 0.000000 1.159866 0.643974 67.666232 -1.797855 4.165570 -1.033319 14.816175 -32.474328 -18.126215 0.000000 0.000000 0.000000
-82.461572 78.084655 329.029214 -1.257394 0.935765 -67.220796 -0.028176 -0.337398 67.184173 -0.232844 0.151643 -0.075290 -2.921421 1.819716 -0.169445 0.000000 0.000000 0.000000 4.029114 -2.496457 -0.318312 -4.393635 1.528272 0.637663 1.590716 4.223783 0.888723 -3.572259 -1.497984 1.498033 0.000000 0.000000 0.000000 0.000000 0.000000 0.000000 1.814250 -0.979092 0.134537 -19.767317 9.467804 -5.469844 -6.838561 -2.873996 -11.418220 9.832027 -9.903747 11.041222 0.000000 0.000000 0.000000 0.000000 0.000000 0.000000 4.380214 1.596005 67.733367 -2.258882 3.297236 -0.748010 0.381773 -0.790283 0.235671 0.000000 0.000000 0.000000 1.349588 0.797047 67.221677 -1.740956 3.962963 -0.985612 17.729074 -35.150961 -18.843558 0.000000 0.000000 0.000000
-82.454159 78.174381 329.006889 -1.511568 0.998968 -66.749764 -0.062341 -0.348748 66.708501 -0.180280 0.119641 -0.081807 -2.477305 2.373297 -0.433223 0.000000 0.000000 0.000000 4.609488 -2.774024 -0.368310 -5.493030 1.883247 0.811787 2.199902 4.761431 0.985243 -4.750594 -2.476635 1.282425 0.000000 0.000000 0.000000 0.000000 0.000000 0.000000 2.039281 -1.033589 0.151072 -21.708196 9.775513 -6.592172 -7.791548 -1.573711 -10.909260 0.121266 -13.583566 14.611412 0.000000 0.000000 0.000000 0.000000 0.000000 0.000000 4.665244 1.935246 67.288513 -2.570309 3.477018 -0.827008 0.500083 -0.926460 0.283595 0.000000 0.000000 0.000000 1.514499 0.994519 66.749797 -1.477695 3.257658 -0.818770 16.041457 -32.466795 -18.379971 0.000000 0.000000 0.000000
-82.420242 78.264553 329.005735 -1.757194 1.025070 -66.158204 -0.111593 -0.343296 66.113013 -0.136907 0.093607 -0.088185 -1.995525 3.046578 -0.749614 0.000000 0.000000 0.000000 4.858384 -2.637393 -0.372636 -6.102624 1.954412 0.914784 3.177338 4.275374 1.019116 -7.266812 -2.725984 1.085346 0.000000 0.000000 0.000000 0.000000 0.000000 0.000000 2.255965 -1.076321 0.166843 -23.998626 10.504104 -7.563709 -6.013339 -1.736801 -9.506777 -9.621303 -16.510656 15.995307 0.000000 0.000000 0.000000 0.000000 0.000000 0.000000 4.781714 2.290781 66.707998 -2.850658 3.465187 -0.881499 -0.301616 -0.613505 0.295773 0.000000 0.000000 0.000000 1.647858 1.192949 66.156768 -1.563707 3.515253 -0.880245 16.334005 -33.968651 -19.085664 0.000000 0.000000 0.000000
-82.381090 78.352777 328.989642 -1.976416 1.072578 -65.561278 -0.123307 -0.344683 65.512982 -0.097388 0.064383 -0.093577 -1.641054 3.660317 -1.019759 0.000000 0.000000 0.000000 4.720756 -2.160253 -0.318810 -5.662909 1.306193 0.760627 3.214338 3.824591 0.948676 -7.764106 -3.231043 0.484417 0.000000 0.000000 0.000000 0.000000 0.000000 0.000000 2.441663 -1.099998 0.179996 -25.870708 11.328312 -8.114978 -4.285985 -2.047307 -8.295667 -16.040645 -18.045943 18.136953 0.000000 0.000000 0.000000 0.000000 0.000000 0.000000 4.866535 2.613964 66.119140 -3.111692 3.349128 -0.917809 -1.217011 -0.111317 0.345876 0.000000 0.000000 0.000000 1.794158 1.355650 65.558551 -1.733096 3.985265 -0.991148 15.952322 -35.802052 -20.185623 0.000000 0.000000 0.000000
